<mxfile host="app.diagrams.net" modified="2022-10-07T07:39:54.670Z" agent="5.0 (Windows NT 10.0; Win64; x64) AppleWebKit/537.36 (KHTML, like Gecko) Chrome/105.0.0.0 Safari/537.36" etag="PSrXdqJHDwQOURuj42xE" version="20.4.0" type="github">
  <diagram name="Page-1" id="97916047-d0de-89f5-080d-49f4d83e522f">
    <mxGraphModel dx="1422" dy="705" grid="1" gridSize="10" guides="1" tooltips="1" connect="1" arrows="1" fold="1" page="1" pageScale="1.5" pageWidth="1169" pageHeight="827" background="none" math="0" shadow="0">
      <root>
        <mxCell id="0" />
        <mxCell id="1" parent="0" />
        <mxCell id="_ZN8bv6HBLstLa0SowCQ-68" value="" style="edgeStyle=orthogonalEdgeStyle;rounded=0;orthogonalLoop=1;jettySize=auto;html=1;" edge="1" parent="1" source="2" target="3">
          <mxGeometry relative="1" as="geometry" />
        </mxCell>
        <mxCell id="2" value="DOCUMENT" style="rounded=1;fillColor=#d5e8d4;strokeColor=#82b366;shadow=1;fontStyle=1;fontSize=14;" parent="1" vertex="1">
          <mxGeometry x="672" y="205.5" width="200" height="60" as="geometry" />
        </mxCell>
        <mxCell id="3" value="&lt;HTML&gt;" style="rounded=1;fillColor=#fff2cc;strokeColor=#d6b656;shadow=1;fontStyle=1;fontSize=14;" parent="1" vertex="1">
          <mxGeometry x="662" y="345.5" width="220" height="60" as="geometry" />
        </mxCell>
        <mxCell id="4" value="&lt;head&gt;" style="rounded=1;fillColor=#f8cecc;strokeColor=#b85450;shadow=1;fontStyle=1;fontSize=14;" parent="1" vertex="1">
          <mxGeometry x="472" y="455.5" width="200" height="60" as="geometry" />
        </mxCell>
        <mxCell id="6" value="&lt;body&gt;" style="rounded=1;fillColor=#f8cecc;strokeColor=#b85450;shadow=1;fontStyle=1;fontSize=14;" parent="1" vertex="1">
          <mxGeometry x="872" y="455.5" width="200" height="60" as="geometry" />
        </mxCell>
        <mxCell id="29" value="" style="edgeStyle=elbowEdgeStyle;elbow=vertical;strokeWidth=4;endArrow=block;endFill=1;fontStyle=1;strokeColor=#23445D;" parent="1" source="2" target="3" edge="1">
          <mxGeometry x="22" y="165.5" width="100" height="100" as="geometry">
            <mxPoint x="22" y="265.5" as="sourcePoint" />
            <mxPoint x="122" y="165.5" as="targetPoint" />
          </mxGeometry>
        </mxCell>
        <mxCell id="31" value="" style="edgeStyle=elbowEdgeStyle;elbow=vertical;strokeWidth=4;endArrow=block;endFill=1;fontStyle=1;strokeColor=#23445D;" parent="1" source="3" target="4" edge="1">
          <mxGeometry x="22" y="165.5" width="100" height="100" as="geometry">
            <mxPoint x="22" y="265.5" as="sourcePoint" />
            <mxPoint x="122" y="165.5" as="targetPoint" />
          </mxGeometry>
        </mxCell>
        <mxCell id="32" value="" style="edgeStyle=elbowEdgeStyle;elbow=vertical;strokeWidth=4;endArrow=block;endFill=1;fontStyle=1;strokeColor=#23445D;" parent="1" edge="1">
          <mxGeometry x="28" y="165.5" width="100" height="100" as="geometry">
            <mxPoint x="778" y="405.5" as="sourcePoint" />
            <mxPoint x="978" y="455.5" as="targetPoint" />
          </mxGeometry>
        </mxCell>
        <mxCell id="54" value="" style="edgeStyle=elbowEdgeStyle;elbow=vertical;strokeWidth=4;endArrow=block;endFill=1;fontStyle=1;strokeColor=#23445D;exitX=0.5;exitY=1;exitDx=0;exitDy=0;" parent="1" source="6" edge="1">
          <mxGeometry x="22" y="165.5" width="100" height="100" as="geometry">
            <mxPoint x="22" y="265.5" as="sourcePoint" />
            <mxPoint x="880" y="600" as="targetPoint" />
            <Array as="points">
              <mxPoint x="652" y="555.5" />
            </Array>
          </mxGeometry>
        </mxCell>
        <mxCell id="_ZN8bv6HBLstLa0SowCQ-55" value="" style="edgeStyle=elbowEdgeStyle;elbow=vertical;strokeWidth=4;endArrow=block;endFill=1;fontStyle=1;strokeColor=#23445D;exitX=0.5;exitY=1;exitDx=0;exitDy=0;" edge="1" parent="1">
          <mxGeometry x="-414" y="270" width="100" height="100" as="geometry">
            <mxPoint x="566" y="515.5" as="sourcePoint" />
            <mxPoint x="434" y="600" as="targetPoint" />
            <Array as="points">
              <mxPoint x="504" y="560" />
              <mxPoint x="434" y="560" />
              <mxPoint x="464" y="560" />
              <mxPoint x="216" y="660" />
            </Array>
          </mxGeometry>
        </mxCell>
        <mxCell id="_ZN8bv6HBLstLa0SowCQ-56" value="" style="edgeStyle=elbowEdgeStyle;elbow=vertical;strokeWidth=4;endArrow=block;endFill=1;fontStyle=1;strokeColor=#23445D;exitX=0.5;exitY=1;exitDx=0;exitDy=0;" edge="1" parent="1">
          <mxGeometry x="-402" y="270" width="100" height="100" as="geometry">
            <mxPoint x="578" y="515.5" as="sourcePoint" />
            <mxPoint x="686" y="600" as="targetPoint" />
            <Array as="points">
              <mxPoint x="476" y="560" />
              <mxPoint x="228" y="660" />
            </Array>
          </mxGeometry>
        </mxCell>
        <mxCell id="_ZN8bv6HBLstLa0SowCQ-59" value="" style="edgeStyle=elbowEdgeStyle;elbow=vertical;strokeWidth=4;endArrow=block;endFill=1;fontStyle=1;strokeColor=#23445D;" edge="1" parent="1" source="4">
          <mxGeometry x="-178.5" y="421" width="100" height="100" as="geometry">
            <mxPoint x="571.5" y="521" as="sourcePoint" />
            <mxPoint x="571.5" y="601" as="targetPoint" />
          </mxGeometry>
        </mxCell>
        <mxCell id="_ZN8bv6HBLstLa0SowCQ-60" value="&lt;meta&gt;" style="rounded=1;fillColor=#dae8fc;strokeColor=#6c8ebf;shadow=1;fontStyle=1;fontSize=14;" vertex="1" parent="1">
          <mxGeometry x="390" y="600" width="88" height="60" as="geometry" />
        </mxCell>
        <mxCell id="_ZN8bv6HBLstLa0SowCQ-61" value="&lt;title&gt;" style="rounded=1;fillColor=#dae8fc;strokeColor=#6c8ebf;shadow=1;fontStyle=1;fontSize=14;" vertex="1" parent="1">
          <mxGeometry x="528" y="600" width="88" height="60" as="geometry" />
        </mxCell>
        <mxCell id="_ZN8bv6HBLstLa0SowCQ-62" value="&lt;style&gt;" style="rounded=1;fillColor=#dae8fc;strokeColor=#6c8ebf;shadow=1;fontStyle=1;fontSize=14;" vertex="1" parent="1">
          <mxGeometry x="640" y="600" width="88" height="60" as="geometry" />
        </mxCell>
        <mxCell id="_ZN8bv6HBLstLa0SowCQ-64" value="" style="edgeStyle=elbowEdgeStyle;elbow=vertical;strokeWidth=4;endArrow=block;endFill=1;fontStyle=1;strokeColor=#23445D;exitX=0.5;exitY=1;exitDx=0;exitDy=0;" edge="1" parent="1">
          <mxGeometry x="28" y="165.5" width="100" height="100" as="geometry">
            <mxPoint x="978" y="515.5" as="sourcePoint" />
            <mxPoint x="1076" y="600" as="targetPoint" />
            <Array as="points">
              <mxPoint x="658" y="555.5" />
            </Array>
          </mxGeometry>
        </mxCell>
        <mxCell id="_ZN8bv6HBLstLa0SowCQ-65" value="&lt;p&gt;" style="rounded=1;fillColor=#dae8fc;strokeColor=#6c8ebf;shadow=1;fontStyle=1;fontSize=14;" vertex="1" parent="1">
          <mxGeometry x="833" y="600" width="88" height="60" as="geometry" />
        </mxCell>
        <mxCell id="_ZN8bv6HBLstLa0SowCQ-66" value="&lt;ul&gt;" style="rounded=1;fillColor=#dae8fc;strokeColor=#6c8ebf;shadow=1;fontStyle=1;fontSize=14;" vertex="1" parent="1">
          <mxGeometry x="1030" y="600" width="88" height="60" as="geometry" />
        </mxCell>
        <mxCell id="_ZN8bv6HBLstLa0SowCQ-67" value="&lt;li&gt;" style="rounded=1;fillColor=#dae8fc;strokeColor=#6c8ebf;shadow=1;fontStyle=1;fontSize=14;" vertex="1" parent="1">
          <mxGeometry x="932" y="744" width="88" height="60" as="geometry" />
        </mxCell>
        <mxCell id="_ZN8bv6HBLstLa0SowCQ-70" value="" style="edgeStyle=elbowEdgeStyle;elbow=vertical;strokeWidth=4;endArrow=block;endFill=1;fontStyle=1;strokeColor=#23445D;exitX=0.5;exitY=1;exitDx=0;exitDy=0;" edge="1" parent="1">
          <mxGeometry x="124.5" y="310" width="100" height="100" as="geometry">
            <mxPoint x="1074.5" y="660" as="sourcePoint" />
            <mxPoint x="1172.5" y="744.5" as="targetPoint" />
            <Array as="points">
              <mxPoint x="754.5" y="700" />
            </Array>
          </mxGeometry>
        </mxCell>
        <mxCell id="_ZN8bv6HBLstLa0SowCQ-71" value="" style="edgeStyle=elbowEdgeStyle;elbow=vertical;strokeWidth=4;endArrow=block;endFill=1;fontStyle=1;strokeColor=#23445D;exitX=0.5;exitY=1;exitDx=0;exitDy=0;" edge="1" parent="1">
          <mxGeometry x="118.5" y="310" width="100" height="100" as="geometry">
            <mxPoint x="1068.5" y="660" as="sourcePoint" />
            <mxPoint x="976.5" y="744.5" as="targetPoint" />
            <Array as="points">
              <mxPoint x="748.5" y="700" />
            </Array>
          </mxGeometry>
        </mxCell>
        <mxCell id="_ZN8bv6HBLstLa0SowCQ-73" value="&lt;li&gt;" style="rounded=1;fillColor=#dae8fc;strokeColor=#6c8ebf;shadow=1;fontStyle=1;fontSize=14;" vertex="1" parent="1">
          <mxGeometry x="1130" y="744" width="88" height="60" as="geometry" />
        </mxCell>
        <mxCell id="_ZN8bv6HBLstLa0SowCQ-74" value="#text" style="rounded=1;fillColor=#e1d5e7;strokeColor=#9673a6;shadow=1;fontStyle=1;fontSize=14;" vertex="1" parent="1">
          <mxGeometry x="833" y="744" width="88" height="60" as="geometry" />
        </mxCell>
        <mxCell id="_ZN8bv6HBLstLa0SowCQ-75" value="" style="edgeStyle=elbowEdgeStyle;elbow=vertical;strokeWidth=4;endArrow=block;endFill=1;fontStyle=1;strokeColor=#23445D;" edge="1" parent="1">
          <mxGeometry x="126" y="564" width="100" height="100" as="geometry">
            <mxPoint x="876" y="664" as="sourcePoint" />
            <mxPoint x="876" y="744" as="targetPoint" />
          </mxGeometry>
        </mxCell>
        <mxCell id="_ZN8bv6HBLstLa0SowCQ-76" value="#text" style="rounded=1;fillColor=#e1d5e7;strokeColor=#9673a6;shadow=1;fontStyle=1;fontSize=14;" vertex="1" parent="1">
          <mxGeometry x="528" y="740" width="88" height="60" as="geometry" />
        </mxCell>
        <mxCell id="_ZN8bv6HBLstLa0SowCQ-77" value="" style="edgeStyle=elbowEdgeStyle;elbow=vertical;strokeWidth=4;endArrow=block;endFill=1;fontStyle=1;strokeColor=#23445D;" edge="1" parent="1">
          <mxGeometry x="-179" y="560" width="100" height="100" as="geometry">
            <mxPoint x="571" y="660" as="sourcePoint" />
            <mxPoint x="571" y="740" as="targetPoint" />
          </mxGeometry>
        </mxCell>
      </root>
    </mxGraphModel>
  </diagram>
</mxfile>
